<svg xmlns="http://www.w3.org/2000/svg" width="528" height="288" fill="none"><path fill="#fff" d="M131.797 285.912a929 929 0 0 0-25.714-.379h-22.69q-21.554 0-37.058.379l-25.524.945q-11.723.567-19.853 1.134a813 813 0 0 0 2.269-25.714 951 951 0 0 0 1.89-25.714q.757-12.667 1.324-24.579t.945-22.5q.757-24.579.946-47.457-.189-22.689-.946-46.512-.378-10.21-.945-21.365a1597 1597 0 0 0-1.324-23.068 734 734 0 0 0-1.89-23.445A596 596 0 0 0 .957 4.57l55.777-2.836q-3.592 42.73-4.915 82.436-1.324 39.517-1.324 72.983 0 32.142.567 55.02.757 22.878 1.324 34.79h.756q14.748 0 28.74-2.269 14.18-2.27 25.335-5.105 13.046-3.215 24.58-7.374-.189 2.08-.189 5.294-.19 2.647-.19 6.996v24.012q0 7.563.379 17.395m71.091-10.021-49.915 5.105q.378-12.669.567-26.281.378-13.803.567-27.416.189-13.614.378-26.659.189-13.236.189-24.958.19-27.604.19-54.264-.19-23.823-.568-46.134-.189-9.454-.567-19.475a968 968 0 0 0-.567-19.663 666 666 0 0 0-.945-18.151q-.38-8.699-1.135-15.504L198.729.22q-.38 11.724-.757 24.202l-.378 24.58q-.189 12.1-.378 23.445v21.176q0 49.348 1.134 94.159a2000 2000 0 0 0 4.538 88.108m176.217-273.4q-9.832 35.546-17.017 70.713a1258 1258 0 0 0-12.29 70.146 1674 1674 0 0 0-8.697 69.768 3302 3302 0 0 0-6.429 69.39l-71.28-4.727q-4.35-34.789-8.698-69.2a2444 2444 0 0 0-9.642-68.823 1976 1976 0 0 0-11.345-68.256 1411 1411 0 0 0-14.18-67.877q3.781 0 7.563.378 3.781.19 7.184.19 10.589 0 20.231-.568 9.643-.567 20.798-1.134 1.324 27.225 3.593 56.533a2553 2553 0 0 0 5.294 58.99q3.024 29.685 6.806 59.37t8.32 57.478q4.727-27.794 8.697-57.478a1567 1567 0 0 0 7.185-59.559 1628 1628 0 0 0 4.916-59.18q2.08-29.306 2.836-56.532a229 229 0 0 0 15.315 1.323q7.374.19 14.558.19 12.29 0 26.282-1.135m148.611 275.858q-15.314-.378-28.55-.568h-24.769q-22.877 0-38.381.379-15.315.567-24.958.945-11.344.567-17.962 1.134a835 835 0 0 0 2.269-25.524 930 930 0 0 0 1.891-25.336q.756-12.48 1.323-24.013t.945-21.743q.757-23.823.946-45.567-.189-22.689-.946-46.512-.378-10.21-.945-21.365-.567-11.345-1.323-23.067a737 737 0 0 0-1.891-23.445A597 597 0 0 0 393.096.6q23.635.945 42.163 1.513 18.718.378 33.277.378 14.37 0 24.769-.19 10.4-.378 17.016-.756 7.752-.378 12.857-.945v3.403q0 3.592.189 9.454.19 5.861.568 13.235.567 7.374 1.512 14.937-21.932-2.08-38.382-2.647-16.449-.756-28.172-.757h-8.697q-3.592 0-6.807.379a5075 5075 0 0 0-.567 39.516 3384 3384 0 0 0-.189 34.79q13.236-.38 23.634-.946 10.4-.756 17.773-1.702 8.508-.945 15.126-2.079-.189 1.323-.189 3.025-.189 1.512-.189 3.592v4.727q0 6.051.378 14.559.378 8.319 1.513 17.962-20.42-2.647-35.168-3.215-14.748-.756-22.878-.756 0 19.664.189 35.168a7247 7247 0 0 0 .378 27.037q.378 11.723.568 20.042.378 8.32.756 13.802 19.285-.378 34.411-1.89t25.525-3.025q10.4-1.702 15.882-3.026 5.483-1.323 5.483-1.701a10.6 10.6 0 0 0-.189 2.079q-.189.946-.189 2.458v3.593q0 5.294.378 14.18.38 8.887 1.891 21.555"/></svg>